<?xml version="1.0" encoding="UTF-8"?>
<!DOCTYPE svg PUBLIC "-//W3C//DTD SVG 1.1//EN" "http://www.w3.org/Graphics/SVG/1.1/DTD/svg11.dtd">
<svg xmlns="http://www.w3.org/2000/svg" version="1.1" width="180px" height="180px" style="shape-rendering:geometricPrecision; text-rendering:geometricPrecision; image-rendering:optimizeQuality; fill-rule:evenodd; clip-rule:evenodd" xmlns:xlink="http://www.w3.org/1999/xlink">
<g><path style="opacity:0.633" fill="#1c1d1b" d="M 78.5,-0.5 C 85.8333,-0.5 93.1667,-0.5 100.5,-0.5C 144.914,8.24742 171.247,34.9141 179.5,79.5C 179.5,86.1667 179.5,92.8333 179.5,99.5C 171.472,143.194 145.805,169.861 102.5,179.5C 93.8333,179.5 85.1667,179.5 76.5,179.5C 33.651,169.984 7.98432,143.65 -0.5,100.5C -0.5,93.5 -0.5,86.5 -0.5,79.5C 7.7529,34.9141 34.0862,8.24742 78.5,-0.5 Z M 86.5,1.5 C 132.991,3.48101 162.491,26.8143 175,71.5C 181.442,114.107 166.275,146.273 129.5,168C 90.4434,184.948 55.61,178.781 25,149.5C 2.10277,122.127 -3.5639,91.4601 8,57.5C 23.0955,23.211 49.2622,4.54437 86.5,1.5 Z M 95.5,12.5 C 98.6741,12.9522 99.0075,13.9522 96.5,15.5C 95.6143,14.675 95.281,13.675 95.5,12.5 Z M 77.5,13.5 C 79.9689,14.6067 80.9689,16.6067 80.5,19.5C 79.5,19.5 78.5,19.5 77.5,19.5C 77.0651,17.2967 77.0651,15.2967 77.5,13.5 Z M 61.5,16.5 C 65.2177,20.6552 64.7177,23.6552 60,25.5C 59.8333,25.1667 59.6667,24.8333 59.5,24.5C 61.297,23.3049 62.297,21.6382 62.5,19.5C 60.7741,19.8146 59.1075,19.9813 57.5,20C 59.3187,19.2597 60.6521,18.0931 61.5,16.5 Z M 121.5,24.5 C 121.685,22.8042 122.519,21.4709 124,20.5C 125.647,22.6313 125.314,24.6313 123,26.5C 122.722,25.5842 122.222,24.9175 121.5,24.5 Z M 48.5,24.5 C 51.0291,23.0948 52.6957,23.9282 53.5,27C 53.3699,28.0588 52.8699,28.8921 52,29.5C 51.3028,27.4156 50.1361,25.7489 48.5,24.5 Z M 137.5,27.5 C 137.167,28.5 136.5,29.1667 135.5,29.5C 135.5,28.1667 136.167,27.5 137.5,27.5 Z M 146.5,38.5 C 147.918,40.9876 147.084,42.6542 144,43.5C 143.5,43.1667 143,42.8333 142.5,42.5C 143.867,41.16 145.2,39.8267 146.5,38.5 Z M 28.5,42.5 C 32.9658,43.2801 33.7991,44.9468 31,47.5C 28.7097,46.1719 27.8764,44.5053 28.5,42.5 Z M 21.5,57.5 C 24.0009,57.5109 24.1676,58.1776 22,59.5C 21.5357,58.9056 21.369,58.2389 21.5,57.5 Z M 17.5,61.5 C 18.0768,60.2267 18.7435,60.2267 19.5,61.5C 19.0302,62.463 18.3635,62.463 17.5,61.5 Z M 22.5,61.5 C 25.1368,63.1538 24.8034,63.6538 21.5,63C 22.056,62.6174 22.3893,62.1174 22.5,61.5 Z M 158.5,65.5 C 159.978,65.238 161.311,65.5713 162.5,66.5C 161.232,68.047 159.565,69.047 157.5,69.5C 157.167,69 156.833,68.5 156.5,68C 157.056,66.9889 157.722,66.1556 158.5,65.5 Z M 13.5,77.5 C 15.337,77.6395 15.6704,78.3061 14.5,79.5C 13.7025,79.0431 13.3691,78.3764 13.5,77.5 Z M 12.5,82.5 C 14.5,82.5 16.5,82.5 18.5,82.5C 18.4019,88.373 17.4019,88.7064 15.5,83.5C 13.5981,88.7064 12.5981,88.373 12.5,82.5 Z M 161.5,83.5 C 163.665,83.1159 165.332,83.7826 166.5,85.5C 164.51,85.8411 162.51,86.1744 160.5,86.5C 160.167,86.1667 159.833,85.8333 159.5,85.5C 160.243,84.8182 160.909,84.1515 161.5,83.5 Z M 160.5,92.5 C 162.696,92.5652 164.696,93.2319 166.5,94.5C 164.167,95.8333 161.833,95.8333 159.5,94.5C 159.863,93.8165 160.196,93.1499 160.5,92.5 Z M 12.5,94.5 C 13.675,94.281 14.675,94.6143 15.5,95.5C 13.9483,96.7979 12.9483,96.4646 12.5,94.5 Z M 133.5,147.5 C 131.61,147.297 130.11,147.963 129,149.5C 128.5,149 128,148.5 127.5,148C 129.616,145.361 131.616,145.194 133.5,147.5 Z M 50.5,147.5 C 52.3442,148.204 52.8442,149.537 52,151.5C 51.586,151.043 51.086,150.709 50.5,150.5C 49.7189,151.729 49.2189,153.062 49,154.5C 48.1301,153.892 47.6301,153.059 47.5,152C 48.3146,150.357 49.3146,148.857 50.5,147.5 Z M 133.5,147.5 C 135.262,148.262 136.262,149.596 136.5,151.5C 134.61,151.297 133.11,151.963 132,153.5C 131.5,153 131,152.5 130.5,152C 132.439,151.092 133.439,149.592 133.5,147.5 Z M 58.5,152.5 C 61.0103,154.896 60.677,157.229 57.5,159.5C 56.6919,159.192 56.0253,158.692 55.5,158C 56.2228,155.982 57.2228,154.148 58.5,152.5 Z M 115.5,157.5 C 113.856,157.286 112.356,157.62 111,158.5C 110.517,157.552 110.351,156.552 110.5,155.5C 112.781,155.077 114.448,155.744 115.5,157.5 Z M 89.5,167.5 C 87.9582,166.699 86.2915,166.366 84.5,166.5C 84.3505,165.448 84.5172,164.448 85,163.5C 86.0113,164.337 87.1779,164.67 88.5,164.5C 88.5,163.5 88.5,162.5 88.5,161.5C 87.0222,161.762 85.6888,161.429 84.5,160.5C 86.0453,159.548 87.712,159.215 89.5,159.5C 89.5,162.167 89.5,164.833 89.5,167.5 Z M 92.5,159.5 C 94.337,159.639 94.6704,160.306 93.5,161.5C 92.7025,161.043 92.3691,160.376 92.5,159.5 Z"/></g>
<g><path style="opacity:0.613" fill="#1d1d1c" d="M 67.5,22.5 C 67.5,23.5 67.5,24.5 67.5,25.5C 64.646,25.9239 61.9793,26.9239 59.5,28.5C 58.2011,27.91 57.3678,26.91 57,25.5C 56.8564,29.1452 55.0231,31.4786 51.5,32.5C 49.2651,29.7089 47.2651,26.7089 45.5,23.5C 48.0195,20.5299 51.0195,19.8633 54.5,21.5C 54.4606,20.4168 54.1272,19.4168 53.5,18.5C 54.8363,16.7598 56.1696,15.0932 57.5,13.5C 59.6858,15.8055 62.0191,15.8055 64.5,13.5C 66.1461,14.7786 67.3128,16.4453 68,18.5C 70.1015,9.4447 72.1015,9.4447 74,18.5C 73.1461,13.0323 75.3128,10.5323 80.5,11C 82.0037,12.4907 82.8371,14.324 83,16.5C 82.8211,10.8283 85.3211,8.82827 90.5,10.5C 91.4287,11.6888 91.762,13.0222 91.5,14.5C 89.857,14.5198 88.5237,13.8532 87.5,12.5C 86.5344,14.396 86.2011,16.396 86.5,18.5C 88.143,18.5198 89.4763,17.8532 90.5,16.5C 92.0285,21.0845 90.3618,22.5845 85.5,21C 84.0096,19.3657 82.6763,19.699 81.5,22C 79.5594,22.7429 77.7261,22.5762 76,21.5C 75.2904,22.9733 74.1238,23.6399 72.5,23.5C 71.9553,19.8284 71.6219,20.1617 71.5,24.5C 69.8007,24.4729 68.4674,23.8062 67.5,22.5 Z M 77.5,13.5 C 77.0651,15.2967 77.0651,17.2967 77.5,19.5C 78.5,19.5 79.5,19.5 80.5,19.5C 80.9689,16.6067 79.9689,14.6067 77.5,13.5 Z M 61.5,16.5 C 60.6521,18.0931 59.3187,19.2597 57.5,20C 59.1075,19.9813 60.7741,19.8146 62.5,19.5C 62.297,21.6382 61.297,23.3049 59.5,24.5C 59.6667,24.8333 59.8333,25.1667 60,25.5C 64.7177,23.6552 65.2177,20.6552 61.5,16.5 Z M 48.5,24.5 C 50.1361,25.7489 51.3028,27.4156 52,29.5C 52.8699,28.8921 53.3699,28.0588 53.5,27C 52.6957,23.9282 51.0291,23.0948 48.5,24.5 Z"/></g>
<g><path style="opacity:0.637" fill="#1d1d1c" d="M 119.5,20.5 C 118.662,20.8417 118.328,21.5084 118.5,22.5C 117.596,23.209 117.263,24.209 117.5,25.5C 116.142,26.6256 114.808,26.6256 113.5,25.5C 115.29,22.6116 116.457,19.6116 117,16.5C 116.259,17.6405 115.425,17.6405 114.5,16.5C 113.548,19.6954 112.215,22.6954 110.5,25.5C 109.15,24.0499 107.484,23.3832 105.5,23.5C 105.5,22.5 105.5,21.5 105.5,20.5C 102.976,21.8118 100.309,22.3118 97.5,22C 96.7734,20.6012 96.2734,19.1012 96,17.5C 95.51,18.7932 95.3433,20.1266 95.5,21.5C 94.5,21.5 93.5,21.5 92.5,21.5C 92.0781,17.2778 92.7448,13.2778 94.5,9.5C 100.655,10.1396 101.988,12.9729 98.5,18C 99.1258,18.7504 99.6258,19.5838 100,20.5C 101.333,17.8333 102.667,15.1667 104,12.5C 105.011,11.6634 106.178,11.33 107.5,11.5C 107.952,15.1629 108.452,18.8296 109,22.5C 109.557,20.3853 110.391,18.3853 111.5,16.5C 109.711,15.377 109.378,14.0436 110.5,12.5C 113.727,13.9094 117.06,14.9094 120.5,15.5C 120.371,17.2161 120.038,18.8828 119.5,20.5 Z M 95.5,12.5 C 95.281,13.675 95.6143,14.675 96.5,15.5C 99.0075,13.9522 98.6741,12.9522 95.5,12.5 Z"/></g>
<g><path style="opacity:0.623" fill="#1d1d1c" d="M 128.5,23.5 C 129.467,22.1938 130.801,21.5271 132.5,21.5C 131.53,24.6611 129.863,27.4944 127.5,30C 128.275,31.2295 129.275,31.5628 130.5,31C 132.006,28.6667 133.673,26.5 135.5,24.5C 136.919,25.0047 137.585,26.0047 137.5,27.5C 136.167,27.5 135.5,28.1667 135.5,29.5C 134.833,29.5 134.5,29.8333 134.5,30.5C 133.662,30.8417 133.328,31.5084 133.5,32.5C 132.833,32.5 132.5,32.8333 132.5,33.5C 131.833,33.5 131.5,33.8333 131.5,34.5C 127.194,34.6971 125.194,32.6971 125.5,28.5C 123.903,29.0905 122.569,30.0905 121.5,31.5C 119.722,29.736 118.389,27.736 117.5,25.5C 118.404,24.791 118.737,23.791 118.5,22.5C 119.338,22.1583 119.672,21.4916 119.5,20.5C 123.944,16.5406 126.944,17.5406 128.5,23.5 Z M 121.5,24.5 C 122.222,24.9175 122.722,25.5842 123,26.5C 125.314,24.6313 125.647,22.6313 124,20.5C 122.519,21.4709 121.685,22.8042 121.5,24.5 Z"/></g>
<g><path style="opacity:0.59" fill="#1d1d1c" d="M 35.5,43.5 C 35.5,42.8333 35.1667,42.5 34.5,42.5C 34.5,41.8333 34.1667,41.5 33.5,41.5C 33.5,40.8333 33.1667,40.5 32.5,40.5C 30.7215,39.3303 29.7215,37.6636 29.5,35.5C 32.4389,35.918 34.7722,37.418 36.5,40C 37.635,40.7494 38.635,40.5827 39.5,39.5C 37.0164,37.0411 35.0164,34.3745 33.5,31.5C 34.5,31.5 35.5,31.5 36.5,31.5C 37.4987,29.0574 39.332,27.3908 42,26.5C 42.5,26.8333 43,27.1667 43.5,27.5C 42.7366,28.7193 41.7366,29.7193 40.5,30.5C 40.8333,30.8333 41.1667,31.1667 41.5,31.5C 45.7245,29.1586 46.3912,30.1586 43.5,34.5C 45.3293,35.2824 46.8293,34.6157 48,32.5C 48.6924,33.0253 49.1924,33.6919 49.5,34.5C 47.6187,36.7337 45.2853,38.067 42.5,38.5C 42.1847,42.8004 39.8514,44.467 35.5,43.5 Z"/></g>
<g><path style="opacity:0.641" fill="#1d1d1c" d="M 137.5,27.5 C 139.426,28.2423 141.259,29.2423 143,30.5C 143.749,31.635 143.583,32.635 142.5,33.5C 141.186,32.6872 140.019,31.6872 139,30.5C 138.5,31 138,31.5 137.5,32C 140.294,33.036 140.794,34.536 139,36.5C 137.867,34.7888 136.367,34.2888 134.5,35C 135.687,36.0195 136.687,37.1861 137.5,38.5C 134.309,39.352 132.309,38.0187 131.5,34.5C 132.167,34.5 132.5,34.1667 132.5,33.5C 133.167,33.5 133.5,33.1667 133.5,32.5C 134.338,32.1583 134.672,31.4916 134.5,30.5C 135.167,30.5 135.5,30.1667 135.5,29.5C 136.5,29.1667 137.167,28.5 137.5,27.5 Z"/></g>
<g><path style="opacity:0.638" fill="#1d1d1c" d="M 148.5,44.5 C 147.833,44.5 147.5,44.8333 147.5,45.5C 146.833,45.5 146.5,45.8333 146.5,46.5C 142.117,47.2449 139.617,45.5782 139,41.5C 141.505,39.2514 144.172,37.2514 147,35.5C 150.859,37.9375 151.359,40.9375 148.5,44.5 Z M 146.5,38.5 C 145.2,39.8267 143.867,41.16 142.5,42.5C 143,42.8333 143.5,43.1667 144,43.5C 147.084,42.6542 147.918,40.9876 146.5,38.5 Z"/></g>
<g><path style="opacity:0.641" fill="#1d1d1c" d="M 32.5,40.5 C 33.1667,40.5 33.5,40.8333 33.5,41.5C 34.1667,41.5 34.5,41.8333 34.5,42.5C 35.1667,42.5 35.5,42.8333 35.5,43.5C 38.0135,48.1939 36.3468,50.5272 30.5,50.5C 30.1583,49.6618 29.4916,49.3284 28.5,49.5C 28.5,48.8333 28.1667,48.5 27.5,48.5C 23.2333,44.7829 23.7333,41.7829 29,39.5C 30.1385,39.9891 31.3052,40.3225 32.5,40.5 Z M 28.5,42.5 C 27.8764,44.5053 28.7097,46.1719 31,47.5C 33.7991,44.9468 32.9658,43.2801 28.5,42.5 Z"/></g>
<g><path style="opacity:0.619" fill="#1d1d1c" d="M 146.5,46.5 C 147.167,46.5 147.5,46.1667 147.5,45.5C 148.167,45.5 148.5,45.1667 148.5,44.5C 150.315,43.3702 152.315,42.7036 154.5,42.5C 154.719,43.675 154.386,44.675 153.5,45.5C 151.228,46.4411 149.228,47.7745 147.5,49.5C 147.808,50.3081 148.308,50.9747 149,51.5C 151.333,49.8333 153.667,48.1667 156,46.5C 156.692,47.0253 157.192,47.6919 157.5,48.5C 155.334,50.4933 153.001,52.3267 150.5,54C 147.317,54.3416 145.317,52.8416 144.5,49.5C 145.193,48.4822 145.859,47.4822 146.5,46.5 Z"/></g>
<g><path style="opacity:0.623" fill="#1d1d1c" d="M 27.5,48.5 C 28.1667,48.5 28.5,48.8333 28.5,49.5C 28.8417,50.3382 29.5084,50.6716 30.5,50.5C 31.0906,51.1515 31.7573,51.8182 32.5,52.5C 30.9448,55.6617 28.9448,58.3284 26.5,60.5C 26.6602,62.1992 26.4935,63.8659 26,65.5C 25.5831,66.756 24.7498,67.4226 23.5,67.5C 23.1583,66.6618 22.4916,66.3284 21.5,66.5C 20.791,65.596 19.791,65.2627 18.5,65.5C 17.791,64.596 16.791,64.2627 15.5,64.5C 14.4103,59.7244 16.4103,57.3911 21.5,57.5C 20.2347,56.5207 18.9014,55.5207 17.5,54.5C 17.7093,53.914 18.0426,53.414 18.5,53C 21.4037,53.3486 24.0704,54.5153 26.5,56.5C 27.4147,55.6721 28.0814,54.6721 28.5,53.5C 26.7721,51.7745 24.7721,50.4411 22.5,49.5C 21.6143,48.675 21.281,47.675 21.5,46.5C 23.6854,46.7036 25.6854,47.3702 27.5,48.5 Z M 21.5,57.5 C 21.369,58.2389 21.5357,58.9056 22,59.5C 24.1676,58.1776 24.0009,57.5109 21.5,57.5 Z M 17.5,61.5 C 18.3635,62.463 19.0302,62.463 19.5,61.5C 18.7435,60.2267 18.0768,60.2267 17.5,61.5 Z M 22.5,61.5 C 22.3893,62.1174 22.056,62.6174 21.5,63C 24.8034,63.6538 25.1368,63.1538 22.5,61.5 Z"/></g>
<g><path style="opacity:0.629" fill="#1d1d1c" d="M 161.5,71.5 C 155.269,72.606 152.936,70.2726 154.5,64.5C 151.302,63.1463 150.136,60.8129 151,57.5C 154.671,53.5521 158.338,53.2188 162,56.5C 163.106,60.8965 161.606,62.2298 157.5,60.5C 159.289,59.377 159.622,58.0436 158.5,56.5C 156.453,57.1847 154.786,58.3514 153.5,60C 153.646,61.7271 154.313,61.8938 155.5,60.5C 156.251,61.376 156.751,62.376 157,63.5C 162.546,61.0455 165.213,62.7122 165,68.5C 163.855,69.6364 162.688,70.6364 161.5,71.5 Z M 158.5,65.5 C 157.722,66.1556 157.056,66.9889 156.5,68C 156.833,68.5 157.167,69 157.5,69.5C 159.565,69.047 161.232,68.047 162.5,66.5C 161.311,65.5713 159.978,65.238 158.5,65.5 Z"/></g>
<g><path style="opacity:1" fill="#858484" d="M 71.5,88.5 C 70.2101,87.9423 69.3768,86.9423 69,85.5C 67.2736,79.9627 66.2736,74.296 66,68.5C 64.5565,81.8938 67.7232,94.0605 75.5,105C 74.9056,105.464 74.2389,105.631 73.5,105.5C 72.5806,102.911 70.914,100.911 68.5,99.5C 67.5,97.8333 66.1667,96.5 64.5,95.5C 64.5,94.8333 64.5,94.1667 64.5,93.5C 64.4346,93.0618 64.6012,92.7284 65,92.5C 65.7253,94.158 66.892,94.658 68.5,94C 66.7449,91.0699 65.5783,87.9033 65,84.5C 64.2427,77.8023 64.4094,71.1356 65.5,64.5C 65.3333,63.8333 65.1667,63.1667 65,62.5C 63.9702,64.3464 62.8036,66.0131 61.5,67.5C 62.8592,63.1184 65.0259,59.1184 68,55.5C 70.039,53.1255 72.3723,51.1255 75,49.5C 75.6667,50.5 75.6667,51.5 75,52.5C 68.9213,60.5094 66.9213,69.5094 69,79.5C 69.8494,82.5214 70.6827,85.5214 71.5,88.5 Z"/></g>
<g><path style="opacity:0.016" fill="#6c6330" d="M 90.5,61.5 C 86.8388,61.3501 85.8388,62.8501 87.5,66C 86.2234,66.1274 85.0567,65.6274 84,64.5C 81.801,64.8356 79.9677,66.1689 78.5,68.5C 77.1934,67.1845 75.6934,66.1845 74,65.5C 73.3985,68.2205 73.5651,70.8872 74.5,73.5C 70.2902,70.6196 69.6235,67.1196 72.5,63C 74.3684,62.9962 76.2017,63.4962 78,64.5C 81.8005,63.8437 85.3005,62.5103 88.5,60.5C 89.4164,60.5427 90.0831,60.8761 90.5,61.5 Z"/></g>
<g><path style="opacity:0.606" fill="#1d1d1c" d="M 15.5,64.5 C 16.209,65.404 17.209,65.7373 18.5,65.5C 19.209,66.404 20.209,66.7373 21.5,66.5C 21.8417,67.3382 22.5084,67.6716 23.5,67.5C 24.8376,73.4958 22.5042,75.8291 16.5,74.5C 15.0813,73.5489 13.4147,73.2155 11.5,73.5C 11.5,72.5 11.5,71.5 11.5,70.5C 14.667,70.4001 17.667,71.0668 20.5,72.5C 21.3857,71.675 21.719,70.675 21.5,69.5C 19.146,69.162 16.8127,68.662 14.5,68C 13.015,66.2435 13.3484,65.0768 15.5,64.5 Z"/></g>
<g><path style="opacity:1" fill="#2d2e2d" d="M 101.5,106.5 C 100.833,106.5 100.5,106.833 100.5,107.5C 98.5,107.5 96.5,107.5 94.5,107.5C 99.4529,95.4794 104.12,83.3127 108.5,71C 108.01,68.6539 107.343,66.4872 106.5,64.5C 107.03,62.0763 107.864,59.743 109,57.5C 112.667,53.8333 116.333,50.1667 120,46.5C 121.535,53.2063 121.535,59.8729 120,66.5C 117.842,69.3316 115.342,71.8316 112.5,74C 108.526,84.757 104.859,95.5904 101.5,106.5 Z"/></g>
<g><path style="opacity:1" fill="#c4273f" d="M 54.5,74.5 C 55.9129,79.4015 57.9129,84.0681 60.5,88.5C 60.5,88.8333 60.5,89.1667 60.5,89.5C 60.8564,91.1898 61.8564,92.1898 63.5,92.5C 63.5,93.1667 63.8333,93.5 64.5,93.5C 64.5,94.1667 64.5,94.8333 64.5,95.5C 62.1985,94.1402 60.5318,94.8068 59.5,97.5C 60.1449,98.646 60.9783,99.646 62,100.5C 61.0755,96.2606 62.2422,95.5939 65.5,98.5C 64.8333,99.5 64.1667,100.5 63.5,101.5C 66.2932,104.427 67.9599,103.76 68.5,99.5C 70.914,100.911 72.5806,102.911 73.5,105.5C 73.5,105.833 73.5,106.167 73.5,106.5C 71.9505,107.441 70.2838,108.107 68.5,108.5C 57.711,103.04 51.0443,94.3731 48.5,82.5C 47.5021,77.5239 47.0021,72.5239 47,67.5C 48.6995,66.5939 50.5328,66.2606 52.5,66.5C 52.5651,69.4282 53.2318,72.0948 54.5,74.5 Z"/></g>
<g><path style="opacity:0.757" fill="#6b1825" d="M 54.5,74.5 C 53.2318,72.0948 52.5651,69.4282 52.5,66.5C 50.5328,66.2606 48.6995,66.5939 47,67.5C 47.0021,72.5239 47.5021,77.5239 48.5,82.5C 46.0956,77.5139 45.2623,72.1806 46,66.5C 47.9719,64.5575 50.1385,64.2242 52.5,65.5C 53.9322,68.3273 54.5988,71.3273 54.5,74.5 Z"/></g>
<g><path style="opacity:1" fill="#e7e7e6" d="M 64.5,93.5 C 63.8333,93.5 63.5,93.1667 63.5,92.5C 64.0138,90.4884 64.1805,88.4884 64,86.5C 63.6667,87.1667 63.3333,87.8333 63,88.5C 60.2386,81.6923 59.7386,74.6923 61.5,67.5C 62.8036,66.0131 63.9702,64.3464 65,62.5C 65.1667,63.1667 65.3333,63.8333 65.5,64.5C 64.4094,71.1356 64.2427,77.8023 65,84.5C 65.5783,87.9033 66.7449,91.0699 68.5,94C 66.892,94.658 65.7253,94.158 65,92.5C 64.6012,92.7284 64.4346,93.0618 64.5,93.5 Z"/></g>
<g><path style="opacity:1" fill="#847b39" d="M 90.5,61.5 C 93.7818,62.539 96.9484,63.8724 100,65.5C 102.111,62.621 104.278,62.2877 106.5,64.5C 106.662,66.5273 106.495,68.5273 106,70.5C 104.331,71.8463 103.164,73.513 102.5,75.5C 102.195,73.0807 102.195,70.414 102.5,67.5C 100.799,67.9662 99.2988,67.9662 98,67.5C 96.005,69.8287 94.8384,69.162 94.5,65.5C 92.5794,64.6761 91.246,63.3428 90.5,61.5 Z"/></g>
<g><path style="opacity:0.635" fill="#1d1d1c" d="M 164.5,76.5 C 166.346,76.2222 167.68,76.8888 168.5,78.5C 166.922,79.2978 165.256,79.7978 163.5,80C 168.755,81.4947 170.088,84.4947 167.5,89C 166.552,89.4828 165.552,89.6495 164.5,89.5C 164.167,88.1667 163.833,88.1667 163.5,89.5C 157.612,89.7422 155.945,87.0755 158.5,81.5C 157.414,81.38 156.747,80.7133 156.5,79.5C 157.286,77.9589 158.286,76.6256 159.5,75.5C 158.167,75.5 156.833,75.5 155.5,75.5C 155.5,74.5 155.5,73.5 155.5,72.5C 157.735,72.7947 159.735,72.4614 161.5,71.5C 163.144,71.7135 164.644,71.3802 166,70.5C 166.5,71.5 167,72.5 167.5,73.5C 166.23,74.2876 165.23,75.2876 164.5,76.5 Z M 161.5,83.5 C 160.909,84.1515 160.243,84.8182 159.5,85.5C 159.833,85.8333 160.167,86.1667 160.5,86.5C 162.51,86.1744 164.51,85.8411 166.5,85.5C 165.332,83.7826 163.665,83.1159 161.5,83.5 Z"/></g>
<g><path style="opacity:0.628" fill="#1d1d1b" d="M 16.5,74.5 C 18.0808,76.1417 18.7475,78.1417 18.5,80.5C 19.9778,80.238 21.3112,80.5713 22.5,81.5C 21.7315,85.4452 21.2315,89.4452 21,93.5C 16.2945,94.8823 16.4612,95.5489 21.5,95.5C 21.5,96.5 21.5,97.5 21.5,98.5C 17.8019,98.5524 14.1352,98.8857 10.5,99.5C 8.74297,92.6509 11.0763,90.3176 17.5,92.5C 18.5,92 19.5,91.5 20.5,91C 16.8484,90.5014 13.1817,90.3347 9.5,90.5C 8.37623,88.269 7.87623,85.9357 8,83.5C 8.33333,83.8333 8.66667,84.1667 9,84.5C 9.70956,83.0267 10.8762,82.3601 12.5,82.5C 9.09524,77.5747 10.4286,74.908 16.5,74.5 Z M 13.5,77.5 C 13.3691,78.3764 13.7025,79.0431 14.5,79.5C 15.6704,78.3061 15.337,77.6395 13.5,77.5 Z M 12.5,82.5 C 12.5981,88.373 13.5981,88.7064 15.5,83.5C 17.4019,88.7064 18.4019,88.373 18.5,82.5C 16.5,82.5 14.5,82.5 12.5,82.5 Z M 12.5,94.5 C 12.9483,96.4646 13.9483,96.7979 15.5,95.5C 14.675,94.6143 13.675,94.281 12.5,94.5 Z"/></g>
<g><path style="opacity:1" fill="#e6aa2f" d="M 48.5,73.5 C 50.0783,74.0656 51.4116,75.0656 52.5,76.5C 49.5812,77.9318 48.2479,76.9318 48.5,73.5 Z"/></g>
<g><path style="opacity:0.467" fill="#574f28" d="M 74.5,73.5 C 75.1032,75.6257 75.1032,77.9591 74.5,80.5C 73.3773,78.312 73.3773,75.9787 74.5,73.5 Z"/></g>
<g><path style="opacity:1" fill="#d1c431" d="M 90.5,61.5 C 91.246,63.3428 92.5794,64.6761 94.5,65.5C 94.8384,69.162 96.005,69.8287 98,67.5C 99.2988,67.9662 100.799,67.9662 102.5,67.5C 102.195,70.414 102.195,73.0807 102.5,75.5C 102.5,77.5 102.5,79.5 102.5,81.5C 101.71,80.3915 101.21,79.0581 101,77.5C 100.467,81.4457 98.6337,84.6124 95.5,87C 96.2524,87.6708 96.5858,88.5041 96.5,89.5C 95.609,88.8902 94.609,88.5569 93.5,88.5C 93.7512,86.8297 94.4178,85.3297 95.5,84C 91.1287,83.1725 86.7953,83.3391 82.5,84.5C 83.8129,87.2477 84.8129,90.081 85.5,93C 87.9949,93.0683 90.3282,92.5683 92.5,91.5C 94.9815,92.6962 94.9815,94.1962 92.5,96C 89.854,96.4974 87.1873,96.6641 84.5,96.5C 83.1667,96.5 82.5,95.8333 82.5,94.5C 82.4208,93.0695 82.7542,91.7362 83.5,90.5C 82.675,89.6143 81.675,89.281 80.5,89.5C 78.7736,86.2436 76.7736,83.2436 74.5,80.5C 75.1032,77.9591 75.1032,75.6257 74.5,73.5C 73.5651,70.8872 73.3985,68.2205 74,65.5C 75.6934,66.1845 77.1934,67.1845 78.5,68.5C 79.9677,66.1689 81.801,64.8356 84,64.5C 85.0567,65.6274 86.2234,66.1274 87.5,66C 85.8388,62.8501 86.8388,61.3501 90.5,61.5 Z"/></g>
<g><path style="opacity:1" fill="#231d2d" d="M 92.5,71.5 C 97.5922,71.7886 97.7589,72.7886 93,74.5C 91.3167,73.8235 91.1501,72.8235 92.5,71.5 Z"/></g>
<g><path style="opacity:1" fill="#27222e" d="M 80.5,71.5 C 82.6648,71.1159 84.3315,71.7826 85.5,73.5C 83.0695,74.7856 81.4028,74.119 80.5,71.5 Z"/></g>
<g><path style="opacity:1" fill="#565224" d="M 91.5,67.5 C 92.4778,67.811 93.1445,68.4777 93.5,69.5C 89.5101,71.0496 88.8434,70.3829 91.5,67.5 Z"/></g>
<g><path style="opacity:1" fill="#605d29" d="M 83.5,68.5 C 84.9778,68.238 86.3112,68.5713 87.5,69.5C 86.8333,69.8333 86.1667,70.1667 85.5,70.5C 84.2867,70.2528 83.62,69.5862 83.5,68.5 Z"/></g>
<g><path style="opacity:0.949" fill="#74682d" d="M 102.5,75.5 C 105.167,77.5 105.167,79.5 102.5,81.5C 102.5,79.5 102.5,77.5 102.5,75.5 Z"/></g>
<g><path style="opacity:1" fill="#eabd25" d="M 51.5,78.5 C 52.2389,78.369 52.9056,78.5357 53.5,79C 52.4214,79.956 51.2547,80.7894 50,81.5C 49.7613,80.212 50.2613,79.212 51.5,78.5 Z"/></g>
<g><path style="opacity:1" fill="#5b5629" d="M 85.5,75.5 C 86.9432,76.3351 87.9432,77.6684 88.5,79.5C 89.1667,78.1667 89.8333,76.8333 90.5,75.5C 91.3081,75.8076 91.9747,76.3076 92.5,77C 91.5494,77.7175 91.3828,78.5509 92,79.5C 92.7175,78.5494 93.5509,78.3828 94.5,79C 93.3816,80.0736 92.3816,81.2402 91.5,82.5C 89.9411,81.9264 88.4411,81.2598 87,80.5C 85.8162,82.6538 84.6496,82.3205 83.5,79.5C 83.8457,78.3044 84.3457,78.3044 85,79.5C 85.49,78.2068 85.6567,76.8734 85.5,75.5 Z"/></g>
<g><path style="opacity:1" fill="#e9c921" d="M 53.5,83.5 C 54.782,84.7082 54.782,86.0416 53.5,87.5C 53.0941,86.4425 53.0941,85.1092 53.5,83.5 Z"/></g>
<g><path style="opacity:1" fill="#362725" d="M 93.5,88.5 C 92.8902,89.391 92.5569,90.391 92.5,91.5C 90.3282,92.5683 87.9949,93.0683 85.5,93C 84.8129,90.081 83.8129,87.2477 82.5,84.5C 86.7953,83.3391 91.1287,83.1725 95.5,84C 94.4178,85.3297 93.7512,86.8297 93.5,88.5 Z"/></g>
<g><path style="opacity:1" fill="#6e6528" d="M 102.5,81.5 C 100.055,83.9295 98.0551,86.5962 96.5,89.5C 96.5858,88.5041 96.2524,87.6708 95.5,87C 98.6337,84.6124 100.467,81.4457 101,77.5C 101.21,79.0581 101.71,80.3915 102.5,81.5 Z"/></g>
<g><path style="opacity:1" fill="#bb1e20" d="M 86.5,86.5 C 87.9187,85.5489 89.5853,85.2155 91.5,85.5C 90.1896,91.3629 88.5229,91.6963 86.5,86.5 Z"/></g>
<g><path style="opacity:1" fill="#8c8d8b" d="M 61.5,67.5 C 59.7386,74.6923 60.2386,81.6923 63,88.5C 63.3333,87.8333 63.6667,87.1667 64,86.5C 64.1805,88.4884 64.0138,90.4884 63.5,92.5C 61.8564,92.1898 60.8564,91.1898 60.5,89.5C 61.8333,89.1667 61.8333,88.8333 60.5,88.5C 59.9685,85.0343 59.6352,81.5343 59.5,78C 59.3037,74.1952 59.9704,70.6952 61.5,67.5 Z"/></g>
<g><path style="opacity:1" fill="#575025" d="M 80.5,89.5 C 81.675,89.281 82.675,89.6143 83.5,90.5C 82.7542,91.7362 82.4208,93.0695 82.5,94.5C 81.6908,92.9724 81.0241,91.3057 80.5,89.5 Z"/></g>
<g><path style="opacity:0.655" fill="#1d1d1c" d="M 163.5,89.5 C 163.833,89.5 164.167,89.5 164.5,89.5C 168.479,91.0531 169.479,93.8865 167.5,98C 164.5,98.6667 161.5,98.6667 158.5,98C 156.006,95.5769 156.006,93.2436 158.5,91C 160.382,90.8019 162.048,90.3019 163.5,89.5 Z M 160.5,92.5 C 160.196,93.1499 159.863,93.8165 159.5,94.5C 161.833,95.8333 164.167,95.8333 166.5,94.5C 164.696,93.2319 162.696,92.5652 160.5,92.5 Z"/></g>
<g><path style="opacity:0.008" fill="#5c5225" d="M 93.5,88.5 C 94.609,88.5569 95.609,88.8902 96.5,89.5C 97.0414,92.6516 96.0414,95.1516 93.5,97C 90.3035,97.8045 87.3035,97.6378 84.5,96.5C 87.1873,96.6641 89.854,96.4974 92.5,96C 94.9815,94.1962 94.9815,92.6962 92.5,91.5C 92.5569,90.391 92.8902,89.391 93.5,88.5 Z"/></g>
<g><path style="opacity:1" fill="#efeb18" d="M 58.5,92.5 C 60.6569,93.0533 60.4903,94.0533 58,95.5C 57.5304,94.4232 57.6971,93.4232 58.5,92.5 Z"/></g>
<g><path style="opacity:1" fill="#ededec" d="M 71.5,88.5 C 74.6409,95.3217 78.6409,101.655 83.5,107.5C 79.9581,107.813 76.6248,107.479 73.5,106.5C 73.5,106.167 73.5,105.833 73.5,105.5C 74.2389,105.631 74.9056,105.464 75.5,105C 67.7232,94.0605 64.5565,81.8938 66,68.5C 66.2736,74.296 67.2736,79.9627 69,85.5C 69.3768,86.9423 70.2101,87.9423 71.5,88.5 Z"/></g>
<g><path style="opacity:0.922" fill="#575a58" d="M 71.5,88.5 C 75.9107,94.9731 80.5774,101.306 85.5,107.5C 84.8333,107.5 84.1667,107.5 83.5,107.5C 78.6409,101.655 74.6409,95.3217 71.5,88.5 Z"/></g>
<g><path style="opacity:1" fill="#ecdb1b" d="M 65.5,98.5 C 66.7181,100.332 66.0514,101.332 63.5,101.5C 64.1667,100.5 64.8333,99.5 65.5,98.5 Z"/></g>
<g><path style="opacity:1" fill="#b9233c" d="M 108.5,109.5 C 107.549,107.882 106.216,106.549 104.5,105.5C 105.63,104.378 106.297,103.044 106.5,101.5C 110.497,97.335 114.33,93.0017 118,88.5C 121.339,81.4838 123.672,74.1505 125,66.5C 127.632,63.8076 129.966,64.141 132,67.5C 132.19,86.1305 124.357,100.131 108.5,109.5 Z"/></g>
<g><path style="opacity:1" fill="#e6b32b" d="M 114.5,96.5 C 118.694,97.4477 119.194,99.1144 116,101.5C 113.676,100.225 113.176,98.558 114.5,96.5 Z"/></g>
<g><path style="opacity:1" fill="#e18c35" d="M 117.5,92.5 C 122.407,92.7799 123.24,94.4465 120,97.5C 118.628,96.0899 117.795,94.4233 117.5,92.5 Z"/></g>
<g><path style="opacity:1" fill="#df7b3a" d="M 122.5,83.5 C 124.199,83.3398 125.866,83.5065 127.5,84C 125.875,84.8525 125.542,85.8525 126.5,87C 123.464,86.1432 122.798,87.3099 124.5,90.5C 123.045,91.7445 121.711,91.5778 120.5,90C 121.167,89.6667 121.833,89.3333 122.5,89C 122.146,87.3745 122.146,85.5412 122.5,83.5 Z"/></g>
<g><path style="opacity:1" fill="#e9b829" d="M 125.5,75.5 C 126.922,75.7086 128.255,76.2086 129.5,77C 127.537,77.8442 126.204,77.3442 125.5,75.5 Z"/></g>
<g><path style="opacity:1" fill="#d65b38" d="M 64.5,95.5 C 66.1667,96.5 67.5,97.8333 68.5,99.5C 67.9599,103.76 66.2932,104.427 63.5,101.5C 66.0514,101.332 66.7181,100.332 65.5,98.5C 62.2422,95.5939 61.0755,96.2606 62,100.5C 60.9783,99.646 60.1449,98.646 59.5,97.5C 60.5318,94.8068 62.1985,94.1402 64.5,95.5 Z"/></g>
<g><path style="opacity:1" fill="#e5b22c" d="M 109.5,100.5 C 111.609,101.052 112.442,102.386 112,104.5C 110.519,103.529 109.685,102.196 109.5,100.5 Z"/></g>
<g><path style="opacity:0.816" fill="#7d1b2b" d="M 106.5,101.5 C 106.297,103.044 105.63,104.378 104.5,105.5C 106.216,106.549 107.549,107.882 108.5,109.5C 107.766,110.708 107.433,112.041 107.5,113.5C 107.5,113.833 107.5,114.167 107.5,114.5C 107.5,115.167 107.167,115.5 106.5,115.5C 106.663,113.143 106.497,110.81 106,108.5C 105.439,107.978 104.772,107.645 104,107.5C 93.2059,108.466 82.3726,108.8 71.5,108.5C 71.5,109.833 71.5,111.167 71.5,112.5C 70.8333,112.5 70.5,112.167 70.5,111.5C 69.8333,110.5 69.1667,109.5 68.5,108.5C 70.2838,108.107 71.9505,107.441 73.5,106.5C 76.6248,107.479 79.9581,107.813 83.5,107.5C 84.1667,107.5 84.8333,107.5 85.5,107.5C 88.5,107.5 91.5,107.5 94.5,107.5C 96.5,107.5 98.5,107.5 100.5,107.5C 101.167,107.5 101.5,107.167 101.5,106.5C 103,104.778 104.667,103.112 106.5,101.5 Z"/></g>
<g><path style="opacity:0.661" fill="#1c1d1b" d="M 22.5,113.5 C 23.507,115.522 25.1737,116.855 27.5,117.5C 26.2634,118.281 25.2634,119.281 24.5,120.5C 27.1328,125.394 26.2994,125.728 22,121.5C 17.4897,125.947 16.6563,125.447 19.5,120C 15.3447,117.727 15.678,116.561 20.5,116.5C 20.2852,114.821 20.9519,113.821 22.5,113.5 Z"/></g>
<g><path style="opacity:0.714" fill="#1c1d1b" d="M 156.5,113.5 C 158.048,113.821 158.715,114.821 158.5,116.5C 163.322,116.561 163.655,117.727 159.5,120C 162.344,125.447 161.51,125.947 157,121.5C 154.356,124.33 153.522,123.996 154.5,120.5C 153.737,119.281 152.737,118.281 151.5,117.5C 152.729,116.719 154.062,116.219 155.5,116C 156.252,115.329 156.586,114.496 156.5,113.5 Z"/></g>
<g><path style="opacity:1" fill="#cf213f" d="M 106.5,115.5 C 95.3409,116.659 84.0076,116.826 72.5,116C 71.944,115.617 71.6107,115.117 71.5,114.5C 71.5,113.833 71.5,113.167 71.5,112.5C 71.5,111.167 71.5,109.833 71.5,108.5C 82.3726,108.8 93.2059,108.466 104,107.5C 104.772,107.645 105.439,107.978 106,108.5C 106.497,110.81 106.663,113.143 106.5,115.5 Z"/></g>
<g><path style="opacity:1" fill="#ead020" d="M 89.5,109.5 C 90.5862,109.62 91.2528,110.287 91.5,111.5C 91.1667,112.167 90.8333,112.833 90.5,113.5C 89.5713,112.311 89.238,110.978 89.5,109.5 Z"/></g>
<g><path style="opacity:1" fill="#eace27" d="M 84.5,109.5 C 86.2726,110.314 86.7726,111.648 86,113.5C 84.9916,113.018 83.825,112.852 82.5,113C 83.8228,112.184 84.4894,111.017 84.5,109.5 Z"/></g>
<g><path style="opacity:1" fill="#e7be28" d="M 94.5,110.5 C 94.8966,109.475 95.5632,109.308 96.5,110C 98.5472,112.054 98.5472,113.054 96.5,113C 95.9341,112.005 95.2674,111.172 94.5,110.5 Z"/></g>
<g><path style="opacity:1" fill="#e6b92d" d="M 77.5,109.5 C 78.675,109.281 79.675,109.614 80.5,110.5C 78.1349,114.755 77.1349,114.421 77.5,109.5 Z"/></g>
<g><path style="opacity:1" fill="#cbbab1" d="M 71.5,114.5 C 71.6107,115.117 71.944,115.617 72.5,116C 84.0076,116.826 95.3409,116.659 106.5,115.5C 107.167,115.5 107.5,115.167 107.5,114.5C 109.332,115.248 110.999,116.248 112.5,117.5C 96.3104,118.835 79.9771,118.669 63.5,117C 65.8832,114.61 68.5499,113.777 71.5,114.5 Z"/></g>
<g><path style="opacity:1" fill="#8e665d" d="M 70.5,111.5 C 70.5,112.167 70.8333,112.5 71.5,112.5C 71.5,113.167 71.5,113.833 71.5,114.5C 68.5499,113.777 65.8832,114.61 63.5,117C 79.9771,118.669 96.3104,118.835 112.5,117.5C 113.338,117.842 113.672,118.508 113.5,119.5C 96.5696,120.917 79.5696,120.584 62.5,118.5C 62.5,117.833 62.5,117.167 62.5,116.5C 64.7937,114.347 67.4604,112.68 70.5,111.5 Z"/></g>
<g><path style="opacity:0.614" fill="#1d1d1c" d="M 34.5,144.5 C 31.9308,143.604 29.9308,141.938 28.5,139.5C 31.5,136.833 34.5,134.167 37.5,131.5C 38.5,131.833 39.1667,132.5 39.5,133.5C 37.0163,135.483 34.6829,137.65 32.5,140C 34.0368,141.11 34.7035,142.61 34.5,144.5 Z"/></g>
<g><path style="opacity:0.214" fill="#64372d" d="M 107.5,114.5 C 107.5,114.167 107.5,113.833 107.5,113.5C 110.09,114.128 112.423,115.295 114.5,117C 115.574,117.739 116.241,118.739 116.5,120C 115.172,124.327 112.838,127.994 109.5,131C 94.8322,131.753 80.1655,132.087 65.5,132C 61.5529,127.936 60.0529,123.103 61,117.5C 61.3826,116.944 61.8826,116.611 62.5,116.5C 62.5,117.167 62.5,117.833 62.5,118.5C 61.7841,123.39 63.1174,127.556 66.5,131C 80.4967,131.037 94.4967,130.704 108.5,130C 112.335,127.181 114.002,123.681 113.5,119.5C 113.672,118.508 113.338,117.842 112.5,117.5C 110.999,116.248 109.332,115.248 107.5,114.5 Z"/></g>
<g><path style="opacity:1" fill="#d1b3ad" d="M 62.5,118.5 C 79.5696,120.584 96.5696,120.917 113.5,119.5C 114.002,123.681 112.335,127.181 108.5,130C 94.4967,130.704 80.4967,131.037 66.5,131C 63.1174,127.556 61.7841,123.39 62.5,118.5 Z"/></g>
<g><path style="opacity:0.63" fill="#1d1d1c" d="M 137.5,146.5 C 138.942,147.82 139.608,149.486 139.5,151.5C 138.5,151.5 137.5,151.5 136.5,151.5C 134.359,156.757 131.359,157.424 127.5,153.5C 127.703,155.044 128.37,156.378 129.5,157.5C 128.272,159.176 126.939,159.509 125.5,158.5C 124.805,160.85 123.472,161.517 121.5,160.5C 121.157,162.225 120.157,162.725 118.5,162C 117.601,160.348 116.601,158.848 115.5,157.5C 114.708,159.257 113.375,160.591 111.5,161.5C 112.776,162.645 114.109,162.645 115.5,161.5C 116.5,161.833 117.167,162.5 117.5,163.5C 115.258,164.692 112.925,165.692 110.5,166.5C 109.641,164 108.641,161.667 107.5,159.5C 107.674,161.861 108.007,164.194 108.5,166.5C 105.737,166.256 103.571,164.923 102,162.5C 101.647,163.672 101.813,164.838 102.5,166C 102.387,167.28 101.72,168.113 100.5,168.5C 99.1345,165.313 98.3012,161.98 98,158.5C 96.5327,161.784 96.6994,164.784 98.5,167.5C 97.635,168.583 96.635,168.749 95.5,168C 93.0895,163.401 92.0895,163.568 92.5,168.5C 91.914,168.709 91.414,169.043 91,169.5C 90.7216,168.584 90.2216,167.918 89.5,167.5C 89.38,168.586 88.7133,169.253 87.5,169.5C 85.5466,168.844 83.5466,168.511 81.5,168.5C 81.6646,165.482 81.498,162.482 81,159.5C 80.2754,161.949 79.2754,164.283 78,166.5C 76.6439,167.38 75.1439,167.714 73.5,167.5C 73.6653,163.818 73.4986,160.152 73,156.5C 72.356,159.609 71.1893,162.443 69.5,165C 64.6624,166.328 62.329,164.494 62.5,159.5C 63.404,158.791 63.7373,157.791 63.5,156.5C 64.4345,155.432 64.7678,154.099 64.5,152.5C 65.5,152.5 66.5,152.5 67.5,152.5C 67.0405,155.877 66.3739,159.211 65.5,162.5C 66.5,162.5 67.5,162.5 68.5,162.5C 68.4325,158.801 69.9325,156.135 73,154.5C 74.1074,154.585 75.1074,154.919 76,155.5C 76.3333,157.833 76.6667,160.167 77,162.5C 77.6395,159.888 78.8062,157.554 80.5,155.5C 86.0315,156.145 91.5315,156.812 97,157.5C 97.3879,156.572 98.0546,155.905 99,155.5C 101.321,156.487 102.987,158.154 104,160.5C 103.865,158.575 103.698,156.575 103.5,154.5C 108.161,154.251 112.494,152.918 116.5,150.5C 118.527,151.693 120.027,153.36 121,155.5C 120.649,153.114 120.815,150.781 121.5,148.5C 125.336,146.416 129.003,144.083 132.5,141.5C 134.135,142.046 135.801,142.38 137.5,142.5C 136.524,141.185 135.524,139.852 134.5,138.5C 137.167,136.167 139.833,133.833 142.5,131.5C 143.731,132.651 143.731,133.817 142.5,135C 144.709,137.378 147.042,139.545 149.5,141.5C 148.277,142.614 146.944,142.781 145.5,142C 143.983,140.315 142.316,138.815 140.5,137.5C 139.5,138 138.5,138.5 137.5,139C 139.603,140.69 141.603,142.524 143.5,144.5C 144.386,145.325 144.719,146.325 144.5,147.5C 142.097,147.552 139.764,147.219 137.5,146.5 Z M 133.5,147.5 C 131.616,145.194 129.616,145.361 127.5,148C 128,148.5 128.5,149 129,149.5C 130.11,147.963 131.61,147.297 133.5,147.5 Z M 133.5,147.5 C 135.262,148.262 136.262,149.596 136.5,151.5C 134.61,151.297 133.11,151.963 132,153.5C 131.5,153 131,152.5 130.5,152C 132.439,151.092 133.439,149.592 133.5,147.5 Z M 115.5,157.5 C 114.448,155.744 112.781,155.077 110.5,155.5C 110.351,156.552 110.517,157.552 111,158.5C 112.356,157.62 113.856,157.286 115.5,157.5 Z M 89.5,167.5 C 89.5,164.833 89.5,162.167 89.5,159.5C 87.712,159.215 86.0453,159.548 84.5,160.5C 85.6888,161.429 87.0222,161.762 88.5,161.5C 88.5,162.5 88.5,163.5 88.5,164.5C 87.1779,164.67 86.0113,164.337 85,163.5C 84.5172,164.448 84.3505,165.448 84.5,166.5C 86.2915,166.366 87.9582,166.699 89.5,167.5 Z M 92.5,159.5 C 92.3691,160.376 92.7025,161.043 93.5,161.5C 94.6704,160.306 94.337,159.639 92.5,159.5 Z"/></g>
<g><path style="opacity:0.611" fill="#1d1d1c" d="M 34.5,144.5 C 37.0054,142.137 39.5054,139.804 42,137.5C 44.7786,138.769 46.612,140.769 47.5,143.5C 45.0968,143.607 43.2635,142.607 42,140.5C 41.5,141 41,141.5 40.5,142C 42.4386,142.908 43.4386,144.408 43.5,146.5C 41.7105,145.987 40.0438,145.487 38.5,145C 38.1667,145.333 37.8333,145.667 37.5,146C 38.7282,146.779 39.7282,147.779 40.5,149C 40.1667,149.5 39.8333,150 39.5,150.5C 37.3211,149.243 35.3211,147.743 33.5,146C 34.056,145.617 34.3893,145.117 34.5,144.5 Z"/></g>
<g><path style="opacity:0.635" fill="#1d1d1c" d="M 55.5,151.5 C 54.8333,151.5 54.5,151.833 54.5,152.5C 53.6618,152.842 53.3284,153.508 53.5,154.5C 49.7207,158.476 46.7207,157.809 44.5,152.5C 45.4146,148.758 47.5813,146.091 51,144.5C 54.4511,145.528 55.9511,147.861 55.5,151.5 Z M 50.5,147.5 C 49.3146,148.857 48.3146,150.357 47.5,152C 47.6301,153.059 48.1301,153.892 49,154.5C 49.2189,153.062 49.7189,151.729 50.5,150.5C 51.086,150.709 51.586,151.043 52,151.5C 52.8442,149.537 52.3442,148.204 50.5,147.5 Z"/></g>
<g><path style="opacity:0.665" fill="#1d1d1c" d="M 63.5,156.5 C 62.596,157.209 62.2627,158.209 62.5,159.5C 56.3219,163.909 53.3219,162.242 53.5,154.5C 54.3382,154.158 54.6716,153.492 54.5,152.5C 55.1667,152.5 55.5,152.167 55.5,151.5C 61.1001,148.074 63.7667,149.741 63.5,156.5 Z M 58.5,152.5 C 57.2228,154.148 56.2228,155.982 55.5,158C 56.0253,158.692 56.6919,159.192 57.5,159.5C 60.677,157.229 61.0103,154.896 58.5,152.5 Z"/></g>
</svg>
